# xmcd CD database file
#
# Track frame offsets:
#	150
#	12492
#	20325
#	34012
#	47935
#	61585
#	93340
#	108015
#	137260
#	160162
#	177472
#	187537
#	221312
#
# Disc length: 3186 seconds
#
# Revision: 0
# Processed by: cddbd v1.5.1PL0 Copyright (c) Steve Scherf et al.
# Submitted via: CDex 1.51
#
DISCID=950c700d
DTITLE=Memphis Slim - Memphis Heat
DYEAR=2004
DGENRE=Jazz
TTITLE0=When I were Young
TTITLE1=Whizzie Wham
TTITLE2=Black Cat Cross My Tail
TTITLE3=Boogie Duo
TTITLE4=Down That Big Road
TTITLE5=Mr Longfingers
TTITLE6=Mother Earth
TTITLE7=You Don't Know My Mind
TTITLE8=Five Long Years
TTITLE9=Trouble Everywhere I Go
TTITLE10=Paris
TTITLE11=Five Long Years (alternative version)
TTITLE12=Memphis Heat
EXTD=YEAR: 2004
EXTT0=
EXTT1=
EXTT2=
EXTT3=
EXTT4=
EXTT5=
EXTT6=
EXTT7=
EXTT8=
EXTT9=
EXTT10=
EXTT11=
EXTT12=
PLAYORDER=
